<?xml version="1.0" standalone="no"?>
<!DOCTYPE svg PUBLIC "-//W3C//DTD SVG 20010904//EN"
 "http://www.w3.org/TR/2001/REC-SVG-20010904/DTD/svg10.dtd">
<svg version="1.0" xmlns="http://www.w3.org/2000/svg"
 width="4675.000000pt" height="4675.000000pt" viewBox="0 0 4675.000000 4675.000000"
 preserveAspectRatio="xMidYMid meet">

<g transform="translate(0.000000,4675.000000) scale(0.100000,-0.100000)"
fill="#000000" stroke="none">
<path d="M17709 36209 c-7 -13 -189 -388 -405 -834 l-393 -810 -268 -6 c-282
-7 -479 -20 -703 -45 -74 -9 -136 -12 -137 -7 -2 4 -128 206 -281 448 -153
242 -374 592 -491 778 -117 185 -217 337 -222 337 -22 0 -274 -56 -472 -106
-588 -146 -1126 -330 -1674 -571 -181 -80 -193 -87 -193 -112 0 -14 30 -432
66 -929 36 -497 64 -905 62 -906 -1 -1 -82 -49 -178 -106 -184 -109 -489 -311
-650 -429 l-95 -70 -70 38 c-241 131 -1563 821 -1572 821 -14 0 -220 -188
-417 -380 -413 -403 -802 -859 -1183 -1385 l-50 -70 155 -230 c191 -281 848
-1250 872 -1285 18 -25 18 -26 -59 -160 -112 -194 -258 -479 -346 -675 -42
-93 -78 -171 -80 -173 -4 -4 -1690 -72 -1787 -72 l-67 0 -45 -137 c-144 -443
-269 -953 -351 -1438 -35 -205 -88 -614 -100 -765 l-7 -85 299 -146 c164 -80
539 -262 834 -404 l536 -259 6 -286 c7 -273 26 -575 47 -718 5 -37 10 -74 10
-84 0 -11 -86 -71 -252 -176 -139 -87 -487 -306 -773 -487 -286 -180 -526
-333 -533 -340 -11 -9 -7 -41 22 -172 154 -705 364 -1351 650 -1999 37 -83 72
-158 79 -167 11 -14 108 -8 932 52 840 62 921 67 933 52 7 -9 56 -88 108 -176
113 -188 287 -453 407 -617 l85 -117 -429 -816 c-236 -449 -429 -821 -429
-827 0 -16 150 -178 400 -431 430 -436 813 -767 1290 -1113 69 -50 131 -94
137 -98 8 -4 312 196 770 507 417 282 763 516 769 520 6 4 87 -37 180 -89 174
-99 587 -306 729 -366 l80 -34 7 -59 c4 -33 21 -442 38 -910 17 -467 33 -859
35 -871 5 -22 31 -32 260 -103 544 -168 1110 -292 1670 -366 203 -26 486 -57
490 -53 2 2 184 377 405 833 221 457 403 831 404 831 0 1 147 6 326 13 328 11
494 22 673 45 86 11 99 11 110 -3 13 -15 277 -433 772 -1221 109 -173 203
-320 209 -327 8 -9 51 -3 186 27 593 130 1147 301 1675 515 196 79 476 202
487 213 4 4 -22 410 -57 902 -36 492 -65 909 -65 926 0 30 7 36 162 129 206
123 434 273 616 404 l143 102 262 -137 c144 -75 513 -269 820 -431 498 -262
560 -292 577 -280 48 33 365 335 536 509 295 302 552 597 801 918 192 249 296
398 287 412 -4 7 -239 354 -521 771 l-513 757 59 103 c56 98 251 464 251 472
0 3 24 53 53 112 29 59 72 152 96 206 l44 97 46 0 c75 0 1804 69 1806 72 2 2
25 73 53 158 172 527 312 1143 392 1722 30 221 60 532 52 539 -4 4 -160 81
-347 171 -187 91 -434 210 -550 266 -115 56 -334 162 -485 236 l-275 133 -12
320 c-6 176 -19 398 -28 494 -9 96 -19 201 -22 234 l-5 60 775 489 c426 269
780 492 786 495 11 7 -59 339 -125 591 -151 577 -366 1182 -592 1673 -37 79
-43 87 -69 87 -15 0 -428 -29 -918 -65 -489 -36 -895 -65 -901 -65 -5 0 -52
71 -104 158 -119 201 -292 465 -415 633 l-97 133 21 40 c11 23 53 104 94 181
245 465 699 1328 721 1373 l27 53 -88 97 c-327 360 -707 724 -1063 1021 -253
211 -664 521 -690 521 -7 0 -354 -232 -772 -515 -418 -283 -764 -515 -769
-515 -5 0 -68 34 -141 76 -140 79 -572 297 -745 376 l-103 47 0 53 c0 155 -71
1793 -77 1799 -23 21 -570 180 -878 254 -448 109 -1076 214 -1441 241 -90 7
-92 6 -105 -17z m-529 -4189 c1671 -102 3175 -849 4267 -2119 480 -559 867
-1229 1117 -1934 411 -1160 450 -2470 110 -3659 -303 -1060 -867 -1987 -1679
-2757 -887 -842 -2027 -1400 -3235 -1585 -352 -54 -464 -61 -925 -61 -461 1
-571 8 -915 61 -1775 274 -3338 1320 -4272 2859 -987 1627 -1150 3629 -440
5395 245 610 569 1145 1011 1670 146 174 546 571 726 721 570 474 1176 821
1858 1066 751 269 1594 391 2377 343z"/>
<path d="M16550 31580 c-797 -45 -1515 -234 -2210 -582 -579 -289 -1022 -608
-1480 -1067 -282 -282 -495 -541 -708 -861 -913 -1372 -1175 -3080 -717 -4670
370 -1284 1199 -2405 2325 -3143 820 -537 1743 -844 2730 -908 227 -14 694 -6
905 16 1154 121 2169 552 3070 1301 167 139 530 502 669 669 685 824 1110
1759 1265 2785 71 468 80 1023 25 1495 -103 884 -415 1730 -914 2475 -525 786
-1251 1434 -2094 1871 -660 341 -1375 546 -2131 609 -175 14 -568 20 -735 10z
m724 -1385 c1275 -134 2425 -834 3121 -1900 370 -566 586 -1163 672 -1855 14
-113 18 -218 18 -480 0 -359 -10 -482 -61 -760 -257 -1402 -1204 -2590 -2511
-3149 -286 -122 -654 -231 -943 -280 -288 -48 -380 -55 -740 -55 -304 0 -365
2 -515 23 -413 55 -783 155 -1128 302 -780 334 -1417 860 -1882 1554 -736
1098 -921 2456 -505 3705 357 1074 1122 1959 2131 2464 513 257 1049 403 1634
445 171 13 523 5 709 -14z"/>
<path d="M32023 25550 c-208 -11 -525 -41 -543 -50 -9 -5 -21 -32 -27 -62 -7
-29 -54 -228 -106 -443 -52 -214 -116 -480 -143 -590 -26 -110 -51 -204 -55
-209 -4 -4 -49 -17 -99 -27 -234 -48 -613 -156 -840 -238 l-79 -29 -477 480
-477 479 -61 -27 c-384 -171 -929 -490 -1299 -762 -80 -58 -88 -68 -84 -91 3
-14 89 -306 191 -649 l186 -623 -57 -52 c-234 -212 -467 -448 -621 -629 -36
-43 -68 -78 -71 -78 -3 0 -295 79 -649 176 -543 149 -645 174 -658 163 -25
-20 -273 -399 -366 -559 -165 -283 -342 -629 -445 -870 -10 -24 8 -43 447
-458 251 -238 472 -448 490 -467 l34 -35 -52 -162 c-64 -201 -129 -457 -176
-686 -19 -96 -36 -175 -38 -177 -2 -1 -295 -79 -651 -173 -357 -94 -650 -172
-651 -174 -2 -1 -9 -66 -16 -143 -18 -210 -25 -821 -11 -1047 10 -171 39 -489
44 -495 1 -1 297 -72 656 -157 360 -86 655 -157 656 -159 0 -1 16 -69 34 -152
48 -220 104 -423 182 -660 l70 -210 -481 -477 -480 -477 83 -174 c152 -314
311 -593 522 -912 168 -254 253 -368 268 -362 36 13 1267 377 1277 377 6 0 33
-24 58 -52 158 -179 439 -455 618 -610 l91 -78 -73 -268 c-40 -147 -120 -440
-178 -652 -58 -211 -102 -387 -98 -390 512 -354 954 -603 1429 -806 l32 -14
466 490 c256 270 467 490 469 490 1 0 36 -11 77 -25 220 -75 526 -155 785
-206 l164 -32 15 -51 c8 -28 84 -321 171 -651 86 -330 158 -602 160 -604 8 -8
372 -30 604 -37 354 -9 1046 29 1076 60 7 6 80 301 164 656 84 355 153 646
154 647 1 0 73 17 162 37 232 52 432 108 659 185 l200 67 482 -480 482 -480
263 132 c297 148 513 272 768 439 217 143 410 282 410 295 0 6 -86 298 -190
649 l-191 640 58 52 c213 193 428 410 592 597 40 47 79 91 86 98 13 14 -21 23
988 -254 312 -85 319 -86 337 -68 51 53 280 410 420 654 144 250 392 754 389
792 0 7 -198 200 -440 428 -242 228 -460 436 -486 462 l-46 47 56 185 c71 230
128 451 172 670 19 93 36 170 37 171 3 3 886 234 1178 309 l125 32 7 67 c28
286 37 844 18 1157 -9 152 -38 461 -43 466 -1 1 -288 70 -637 154 -349 83
-644 154 -655 159 -16 7 -25 31 -44 122 -40 189 -118 472 -192 694 l-70 210
480 476 480 476 -73 154 c-172 364 -418 782 -659 1121 -52 73 -103 143 -113
156 l-19 22 -520 -155 c-286 -86 -577 -173 -646 -194 l-126 -38 -84 95 c-125
141 -396 409 -545 539 -73 63 -131 120 -129 127 14 39 355 1289 353 1291 -20
17 -311 210 -398 265 -264 167 -655 376 -944 505 l-128 57 -28 -28 c-15 -16
-224 -237 -465 -492 -327 -347 -441 -462 -454 -457 -143 55 -667 194 -888 235
l-122 23 -15 51 c-8 28 -85 321 -171 651 -87 330 -159 602 -161 604 -22 24
-852 46 -1131 31z m843 -2765 c618 -59 1180 -217 1729 -485 520 -254 945 -558
1360 -974 412 -413 705 -821 960 -1341 268 -545 424 -1084 492 -1705 25 -233
25 -786 0 -1020 -68 -619 -224 -1161 -492 -1705 -251 -511 -551 -930 -955
-1336 -857 -859 -1954 -1369 -3165 -1469 -177 -15 -619 -15 -790 -1 -1093 94
-2065 497 -2885 1197 -155 132 -442 421 -569 574 -668 800 -1055 1707 -1168
2740 -25 234 -25 787 0 1020 70 641 235 1202 517 1760 181 358 370 644 640
970 130 157 457 485 615 616 853 708 1853 1106 2945 1174 189 11 564 4 766
-15z"/>
<path d="M32065 22583 c-27 -2 -126 -12 -220 -23 -1463 -165 -2773 -999 -3556
-2265 -185 -297 -378 -715 -484 -1045 -362 -1127 -299 -2332 179 -3425 173
-395 422 -795 717 -1150 103 -124 381 -408 510 -521 885 -778 2012 -1204 3184
-1204 1520 0 2947 718 3867 1945 781 1043 1105 2382 887 3675 -295 1754 -1543
3211 -3234 3775 -379 126 -757 202 -1169 235 -119 9 -564 11 -681 3z m534
-1794 c1073 -76 2003 -710 2466 -1682 384 -806 377 -1751 -20 -2557 -362 -734
-1015 -1285 -1805 -1523 -412 -125 -889 -154 -1325 -81 -598 100 -1163 392
-1595 824 -483 483 -778 1108 -841 1783 -15 159 -6 541 15 683 103 686 398
1272 872 1735 156 151 246 224 424 341 539 355 1176 523 1809 477z"/>
</g>
</svg>
