<?xml version="1.0" standalone="no"?>
<!DOCTYPE svg PUBLIC "-//W3C//DTD SVG 20010904//EN"
 "http://www.w3.org/TR/2001/REC-SVG-20010904/DTD/svg10.dtd">
<svg version="1.0" xmlns="http://www.w3.org/2000/svg"
 width="512.000000pt" height="512.000000pt" viewBox="0 0 512.000000 512.000000"
 preserveAspectRatio="xMidYMid meet">

<g transform="translate(0.000000,512.000000) scale(0.100000,-0.100000)"
fill="#000000" stroke="none">
<path d="M1020 5102 c-20 -9 -43 -32 -53 -52 -16 -33 -17 -148 -15 -2087 l3
-2052 21 -28 c11 -15 39 -34 61 -41 53 -17 104 2 133 50 20 33 20 45 20 2011
l0 1977 1370 0 1370 0 0 -42 -1 -43 -620 -450 c-342 -247 -623 -454 -625 -460
-2 -5 -3 -881 -2 -1945 l3 -1936 624 454 625 453 23 -30 c48 -61 141 -60 187
2 l21 28 3 2052 c2 1939 1 2054 -15 2087 -10 20 -33 43 -53 52 -33 17 -127 18
-1540 18 -1413 0 -1507 -1 -1540 -18z m2177 -2847 c56 -39 85 -173 59 -276
-40 -156 -157 -166 -205 -18 l-18 54 -66 3 -67 3 0 49 0 50 70 0 69 0 11 40
c23 86 94 132 147 95z"/>
</g>
</svg>
