<?xml version="1.0" standalone="no"?>
<!DOCTYPE svg PUBLIC "-//W3C//DTD SVG 20010904//EN"
 "http://www.w3.org/TR/2001/REC-SVG-20010904/DTD/svg10.dtd">
<svg version="1.0" xmlns="http://www.w3.org/2000/svg"
 width="232.000000pt" height="194.000000pt" viewBox="0 0 232.000000 194.000000"
 preserveAspectRatio="xMidYMid meet">

<g transform="translate(0.000000,194.000000) scale(0.100000,-0.100000)"
fill="#000000" stroke="none">
<path d="M1018 1743 c-23 -27 -48 -79 -48 -103 0 -17 6 -20 40 -20 34 0 40 3
40 21 0 12 15 36 33 53 26 24 30 32 16 32 -10 0 -15 -4 -12 -9 3 -5 -5 -6 -18
-1 -13 4 -32 7 -43 6 -17 -1 -17 0 -1 19 10 10 16 19 13 19 -3 0 -12 -8 -20
-17z"/>
<path d="M1279 1747 c11 -14 11 -21 3 -29 -9 -9 -12 -7 -12 8 0 11 -3 15 -8 8
-13 -19 -37 -22 -63 -8 -13 7 -35 13 -49 13 -21 -1 -20 -2 7 -9 18 -4 44 -15
59 -25 17 -11 24 -12 19 -4 -5 8 -4 11 1 6 5 -5 9 -14 9 -20 1 -7 5 -24 9 -39
7 -24 13 -28 47 -28 30 0 39 4 39 17 0 24 -38 99 -58 115 -15 12 -16 11 -3 -5z"/>
<path d="M818 1574 c-48 -25 -57 -59 -72 -266 -8 -106 -13 -194 -11 -196 2 -3
111 -42 241 -89 131 -46 246 -89 256 -94 21 -11 24 -47 5 -55 -7 -2 -65 14
-128 37 -260 93 -371 130 -377 125 -3 -4 -10 -62 -15 -131 -8 -114 -7 -128 10
-157 38 -66 50 -68 423 -68 372 0 385 2 422 66 17 28 17 45 7 220 -11 175 -18
214 -40 214 -21 0 -466 163 -478 175 -12 11 -12 17 -1 29 7 9 18 16 25 16 8 0
115 -37 240 -81 124 -45 228 -80 230 -77 3 2 0 64 -5 137 -17 219 -3 211 -402
211 -248 -1 -308 -3 -330 -16z"/>
<path d="M169 481 c-42 -42 -42 -110 0 -152 42 -42 110 -42 152 0 24 24 29 38
29 76 0 38 -5 52 -29 76 -24 24 -38 29 -76 29 -38 0 -52 -5 -76 -29z m117 -46
c14 -21 15 -31 6 -51 -22 -46 -85 -45 -96 2 -16 62 56 100 90 49z"/>
<path d="M387 503 c-3 -5 -5 -52 -5 -105 l-1 -98 29 0 c28 0 29 1 32 58 l3 57
39 -57 c32 -48 44 -58 67 -58 l29 0 0 105 c0 105 0 105 -25 105 -23 0 -24 -4
-27 -62 l-3 -63 -40 63 c-33 50 -45 62 -67 62 -15 0 -29 -3 -31 -7z"/>
<path d="M620 405 l0 -105 66 0 c57 0 65 2 62 18 -2 11 -14 18 -36 20 l-32 3
0 85 0 84 -30 0 -30 0 0 -105z"/>
<path d="M775 478 c-3 -18 -4 -66 -3 -105 3 -72 3 -73 31 -73 l27 0 0 105 c0
105 0 105 -25 105 -19 0 -25 -6 -30 -32z"/>
<path d="M870 405 l0 -105 30 0 c30 0 30 0 30 58 l0 57 38 -57 c32 -51 41 -58
70 -58 l32 0 0 105 0 105 -30 0 -30 0 0 -62 0 -63 -41 63 c-35 52 -46 62 -70
62 l-29 0 0 -105z"/>
<path d="M1110 405 l0 -105 65 0 c58 0 65 2 65 20 0 17 -7 20 -40 20 -33 0
-40 3 -40 20 0 16 7 20 35 20 31 0 35 3 35 25 0 22 -4 25 -36 25 -28 0 -35 3
-32 18 2 12 14 18 41 20 29 3 37 7 37 23 0 17 -7 19 -65 19 l-65 0 0 -105z"/>
<path d="M1350 490 c-38 -38 -21 -79 45 -104 48 -19 53 -27 31 -45 -11 -9 -17
-8 -29 4 -9 8 -27 15 -41 15 -20 0 -24 -4 -19 -17 10 -30 35 -43 78 -43 51 0
78 25 73 67 -2 22 -12 33 -50 51 -49 23 -64 52 -28 52 11 0 20 -5 20 -10 0 -6
14 -9 30 -8 35 3 37 11 10 38 -13 13 -33 20 -60 20 -27 0 -47 -7 -60 -20z"/>
<path d="M1530 405 l0 -105 25 0 c23 0 25 4 25 45 l0 45 40 0 40 0 0 -45 c0
-42 2 -45 28 -45 l27 0 -3 105 c-3 105 -3 105 -28 105 -23 0 -25 -3 -21 -34 6
-46 -4 -58 -44 -54 -32 3 -34 5 -37 46 -3 37 -6 42 -28 42 -24 0 -24 0 -24
-105z"/>
<path d="M1788 481 c-28 -25 -33 -36 -33 -76 0 -40 5 -51 33 -76 44 -40 99
-40 143 -1 28 25 32 35 32 77 0 42 -4 52 -32 77 -44 39 -99 39 -143 -1z m110
-33 c19 -19 14 -73 -8 -93 -27 -24 -64 -13 -80 25 -10 25 -10 34 4 55 18 27
63 34 84 13z"/>
<path d="M2000 405 l0 -105 28 0 c24 0 27 4 27 32 0 29 3 32 45 42 69 17 88
75 38 119 -14 12 -37 17 -79 17 l-59 0 0 -105z m105 35 c0 -20 -5 -25 -24 -25
-16 0 -25 6 -27 19 -4 28 5 38 29 34 16 -2 22 -10 22 -28z"/>
<path d="M360 145 c0 -46 0 -46 33 -43 30 3 32 5 32 43 0 38 -2 40 -32 43 -33
3 -33 3 -33 -43z m50 20 c0 -8 -7 -15 -15 -15 -8 0 -15 7 -15 15 0 8 7 15 15
15 8 0 15 -7 15 -15z m3 -40 c1 -5 -6 -11 -15 -13 -11 -2 -18 3 -18 13 0 17
30 18 33 0z"/>
<path d="M490 145 c0 -25 5 -45 10 -45 6 0 10 7 10 17 0 14 3 14 22 -3 21 -18
21 -18 15 0 -4 10 -3 24 3 31 17 21 0 45 -31 45 -28 0 -29 -2 -29 -45z m50 20
c0 -8 -7 -15 -15 -15 -8 0 -15 7 -15 15 0 8 7 15 15 15 8 0 15 -7 15 -15z"/>
<path d="M635 154 c-20 -49 -20 -49 24 -49 l38 -1 -14 43 c-8 24 -19 43 -24
43 -5 0 -16 -16 -24 -36z m35 -9 c0 -8 -7 -15 -15 -15 -9 0 -12 6 -9 15 4 8
10 15 15 15 5 0 9 -7 9 -15z"/>
<path d="M761 143 c2 -45 2 -46 8 -13 l6 35 23 -32 c32 -45 42 -41 42 12 0 25
-4 45 -10 45 -5 0 -10 -15 -10 -32 l0 -33 -21 33 c-29 44 -39 40 -38 -15z"/>
<path d="M900 145 c0 -43 1 -45 28 -45 33 0 52 16 52 45 0 29 -19 45 -52 45
-27 0 -28 -2 -28 -45z m63 13 c8 -12 7 -21 -2 -32 -23 -28 -41 -19 -41 20 0
28 4 35 16 32 9 -2 22 -10 27 -20z"/>
<path d="M1123 178 c9 -7 18 -29 20 -48 4 -34 4 -33 5 7 2 30 7 43 20 46 9 3
-1 5 -22 6 -34 1 -37 -1 -23 -11z"/>
<path d="M1247 147 l-14 -43 38 1 c22 0 39 3 39 6 0 16 -31 79 -39 79 -5 0
-16 -19 -24 -43z m31 -16 c-15 -5 -19 4 -11 24 6 18 7 18 13 -1 4 -10 3 -21
-2 -23z"/>
<path d="M1382 178 c-28 -28 -7 -78 33 -78 24 0 45 18 45 37 0 7 -9 13 -20 13
-11 0 -20 -5 -20 -11 0 -5 5 -7 11 -3 7 4 10 1 7 -7 -3 -8 -13 -14 -24 -14
-14 0 -19 7 -19 30 0 28 2 30 35 27 26 -1 31 0 20 8 -21 13 -54 12 -68 -2z"/>
<path d="M1520 145 c0 -43 1 -45 28 -44 16 1 20 3 10 6 -13 3 -18 15 -18 44 0
21 -4 39 -10 39 -5 0 -10 -20 -10 -45z"/>
<path d="M1628 145 c-2 -25 0 -45 4 -45 5 0 8 20 8 45 0 25 -2 45 -4 45 -2 0
-6 -20 -8 -45z"/>
<path d="M1700 145 c0 -52 17 -61 22 -12 l3 32 20 -32 c10 -18 23 -33 27 -33
4 0 7 21 7 48 -2 44 -2 45 -8 12 l-6 -35 -23 33 c-32 44 -42 40 -42 -13z"/>
<path d="M1850 145 c0 -43 1 -45 28 -44 23 2 24 2 5 6 -27 5 -31 30 -5 36 16
4 16 5 0 6 -26 2 -22 29 5 34 19 4 18 4 -5 6 -27 1 -28 -1 -28 -44z"/>
</g>
</svg>
