<?xml version="1.0" standalone="no"?>
<!DOCTYPE svg PUBLIC "-//W3C//DTD SVG 20010904//EN"
 "http://www.w3.org/TR/2001/REC-SVG-20010904/DTD/svg10.dtd">
<svg version="1.0" xmlns="http://www.w3.org/2000/svg"
 width="512.000000pt" height="512.000000pt" viewBox="0 0 512.000000 512.000000"
 preserveAspectRatio="xMidYMid meet">

<g transform="translate(0.000000,512.000000) scale(0.100000,-0.100000)"
fill="#000000" stroke="none">
<path d="M721 5103 c-19 -10 -44 -31 -55 -46 l-21 -28 -3 -2457 c-2 -2324 -1
-2459 15 -2491 38 -74 121 -100 190 -61 22 12 46 31 54 43 12 19 15 350 19
2397 l5 2375 1635 0 1635 0 5 -2375 c4 -2047 7 -2378 19 -2397 8 -12 32 -31
54 -43 69 -39 152 -13 189 61 17 32 18 171 18 2479 0 2308 -1 2447 -18 2479
-9 19 -30 44 -45 55 l-28 21 -1817 3 c-1715 2 -1819 1 -1851 -15z"/>
<path d="M1100 2365 l0 -2225 1460 0 1460 0 0 2225 0 2225 -1460 0 -1460 0 0
-2225z m574 185 c48 -18 104 -79 122 -132 51 -154 -42 -318 -180 -318 -161 0
-251 233 -147 378 48 66 138 98 205 72z"/>
</g>
</svg>
