<?xml version="1.0" standalone="no"?>
<!DOCTYPE svg PUBLIC "-//W3C//DTD SVG 20010904//EN"
 "http://www.w3.org/TR/2001/REC-SVG-20010904/DTD/svg10.dtd">
<svg version="1.0" xmlns="http://www.w3.org/2000/svg"
 width="333.000000pt" height="335.000000pt" viewBox="0 0 333.000000 335.000000"
 preserveAspectRatio="xMidYMid meet">

<g transform="translate(0.000000,335.000000) scale(0.100000,-0.100000)"
fill="#000000" stroke="none">
<path d="M1556 2670 c-98 -17 -169 -60 -192 -116 -13 -31 -18 -34 -57 -34 -24
0 -62 -10 -87 -22 -84 -43 -119 -170 -86 -311 21 -90 20 -112 -5 -147 -19 -25
-21 -38 -17 -102 5 -84 28 -139 64 -159 34 -18 70 -83 79 -142 13 -97 33 -143
80 -186 49 -45 61 -78 51 -136 -6 -31 -14 -39 -51 -55 -33 -14 -46 -26 -51
-47 -21 -96 -31 -105 -254 -235 -52 -31 -180 -107 -284 -169 l-190 -113 104
-98 c204 -194 442 -319 721 -380 87 -18 136 -22 294 -22 203 -1 274 9 436 60
l79 25 -59 72 c-71 88 -96 136 -122 234 -44 172 -6 386 89 503 15 18 17 30 11
50 -4 14 -13 51 -19 83 -11 56 -14 59 -54 77 -45 19 -56 34 -56 79 0 28 22 53
92 104 47 35 69 100 78 234 5 91 9 106 36 142 52 74 55 83 50 144 -3 37 -13
72 -30 101 -22 37 -26 57 -26 120 0 81 -21 201 -44 244 -19 37 -40 54 -116 94
-169 89 -343 129 -464 108z"/>
</g>
</svg>
